inDegrees=yes
name=ik_coleta1_trike_mov
DataType=double
version=3
OpenSimVersion=4.4-2022-07-23-0e9fedc
endheader
time	pelvis_tilt	pelvis_tx	pelvis_ty	hip_flexion_r	knee_angle_r	ankle_angle_r	hip_flexion_l	knee_angle_l	ankle_angle_l	lumbar_extension	gearToGround_coord_0	rightPedalToGear_coord_0	leftPedalToGear_coord_0
19.24253487586975	82.1044677414186	-0.7	0.0500000000000003	66.60446774141805	-62.90612824953322	-1.039076492892845e-12	80.38799999999991	-84.66000000000004	5.05043721578303e-13	2.071017320375504e-12	0	-114.0000000000003	-139.067795130823
19.24652791023254	82.10381608893422	-0.7	0.0500000000000003	66.60381608893366	-62.35270552081884	-1.039076492892845e-12	80.38799999999991	-84.66000000000004	5.05043721578303e-13	2.071017320375504e-12	0	-114.0000000000003	-139.067795130823
19.25053000450134	82.36667795525192	-0.7	0.0500000000000003	66.86667795525136	-62.87751428476777	-1.039076492892845e-12	80.38799999999991	-84.66000000000004	5.05043721578303e-13	2.071017320375504e-12	0	-114.0000000000003	-139.067795130823
19.25654602050781	82.36624399374736	-0.7	0.0500000000000003	66.86624399374679	-62.04376114222351	-1.039076492892845e-12	80.38799999999991	-84.66000000000004	5.05043721578303e-13	2.071017320375504e-12	0	-114.0000000000003	-139.067795130823
19.26051688194275	82.68835266817584	-0.7	0.0500000000000003	67.18835266817527	-62.68681080457334	-1.039076492892845e-12	80.38799999999991	-84.66000000000004	5.05043721578303e-13	2.071017320375504e-12	0	-114.0000000000003	-139.067795130823
19.26551795005798	82.68784598582221	-0.7	0.0500000000000003	67.18784598582165	-62.25878956144443	-1.039076492892845e-12	80.38799999999991	-84.66000000000004	5.05043721578303e-13	2.071017320375504e-12	0	-114.0000000000003	-139.067795130823
19.27955102920532	82.68784099158196	-0.7	0.0500000000000003	67.18784099158141	-61.86079917311702	-1.039076492892845e-12	80.38799999999991	-84.66000000000004	5.05043721578303e-13	2.071017320375504e-12	0	-114.0000000000003	-139.067795130823
19.28452777862549	84.79403629832619	-0.7	0.0500000000000003	69.29403629832564	-66.07285819233884	-1.039076492892845e-12	80.38799999999991	-84.66000000000004	5.05043721578303e-13	2.071017320375504e-12	0	-114.0000000000003	-139.067795130823
19.28852510452271	84.79403699004816	-0.7	0.0500000000000003	69.2940369900476	-65.69497195462704	-1.039076492892845e-12	80.38799999999991	-84.66000000000004	5.05043721578303e-13	2.071017320375504e-12	0	-114.0000000000003	-139.067795130823
19.29451489448547	84.50924354448455	-0.7	0.0500000000000003	69.00924354448398	-65.12621771460952	-1.039076492892845e-12	80.38799999999991	-84.66000000000004	5.05043721578303e-13	2.071017320375504e-12	0	-114.0000000000003	-139.067795130823
19.29851102828979	84.50965272259224	-0.7	0.0500000000000003	69.00965272259167	-64.61390591114289	-1.039076492892845e-12	80.38799999999991	-84.66000000000004	5.05043721578303e-13	2.071017320375504e-12	0	-114.0000000000003	-139.067795130823
19.30451774597168	84.35169685148955	-0.7	0.0500000000000003	68.85169685148898	-64.29836764252438	-1.039076492892845e-12	80.38799999999991	-84.66000000000004	5.05043721578303e-13	2.071017320375504e-12	0	-114.0000000000003	-139.067795130823
19.30852699279785	84.35192265741972	-0.7	0.0500000000000003	68.85192265741917	-63.98053367210344	-1.039076492892845e-12	80.38799999999991	-84.66000000000004	5.05043721578303e-13	2.071017320375504e-12	0	-114.0000000000003	-139.067795130823
19.31353282928467	84.1362599406856	-0.7	0.0500000000000003	68.63625994068505	-63.54981551626181	-1.039076492892845e-12	80.38799999999991	-84.66000000000004	5.05043721578303e-13	2.071017320375504e-12	0	-114.0000000000003	-139.067795130823
19.31852698326111	84.13657335616962	-0.7	0.0500000000000003	68.63657335616905	-63.25520542626612	-1.039076492892845e-12	80.38799999999991	-84.66000000000004	5.05043721578303e-13	2.071017320375504e-12	0	-114.0000000000003	-139.067795130823
19.32353782653809	83.19525275876832	-0.7	0.0500000000000003	67.69525275876777	-61.37547649679756	-1.039076492892845e-12	80.38799999999991	-84.66000000000004	5.05043721578303e-13	2.071017320375504e-12	0	-114.0000000000003	-139.067795130823
19.32752799987793	83.19666013223498	-0.7	0.0500000000000003	67.69666013223443	-61.10967775641804	-1.039076492892845e-12	80.38799999999991	-84.66000000000004	5.05043721578303e-13	2.071017320375504e-12	0	-114.0000000000003	-139.067795130823
19.33154106140137	82.77492675805743	-0.7	0.0500000000000003	67.27492675805686	-60.26739173831815	-1.039076492892845e-12	80.38799999999991	-84.66000000000004	5.05043721578303e-13	2.071017320375504e-12	0	-114.0000000000003	-139.067795130823
19.3365330696106	82.77555233916922	-0.7	0.0500000000000003	67.27555233916866	-60.02590123848265	-1.039076492892845e-12	80.38799999999991	-84.66000000000004	5.05043721578303e-13	2.071017320375504e-12	0	-114.0000000000003	-139.067795130823
19.34454083442688	82.77556195283802	-0.7	0.0500000000000003	67.27556195283746	-59.80428486780731	-1.039076492892845e-12	80.38799999999991	-84.66000000000004	5.05043721578303e-13	2.071017320375504e-12	0	-114.0000000000003	-139.067795130823
19.35154104232788	82.77556333651361	-0.7	0.0500000000000003	67.27556333651306	-59.6091365717286	-1.039076492892845e-12	80.38799999999991	-84.66000000000004	5.05043721578303e-13	2.071017320375504e-12	0	-114.0000000000003	-139.067795130823
19.35654091835022	82.31959631327371	-0.7	0.0500000000000003	66.81959631327314	-58.69860798032773	-1.039076492892845e-12	80.38799999999991	-84.66000000000004	5.05043721578303e-13	2.071017320375504e-12	0	-114.0000000000003	-139.067795130823
19.36051988601685	82.32027504565029	-0.7	0.0500000000000003	66.82027504564974	-58.52756434320395	-1.039076492892845e-12	80.38799999999991	-84.66000000000004	5.05043721578303e-13	2.071017320375504e-12	0	-114.0000000000003	-139.067795130823
19.36552596092224	81.78432750628102	-0.7	0.0500000000000003	66.28432750628045	-57.45728440644884	-1.039076492892845e-12	80.38799999999991	-84.66000000000004	5.05043721578303e-13	2.071017320375504e-12	0	-114.0000000000003	-139.067795130823
19.37254977226257	81.7851272337379	-0.7	0.0500000000000003	66.28512723373733	-57.31392498801325	-1.039076492892845e-12	80.38799999999991	-84.66000000000004	5.05043721578303e-13	2.071017320375504e-12	0	-114.0000000000003	-139.067795130823
19.38152694702148	81.78514020512925	-0.7	0.0500000000000003	66.2851402051287	-57.19578500319587	-1.039076492892845e-12	80.38799999999991	-84.66000000000004	5.05043721578303e-13	2.071017320375504e-12	0	-114.0000000000003	-139.067795130823
19.38754296302795	80.46350638810523	-0.7	0.0500000000000003	64.96350638810466	-54.55667787941484	-1.039076492892845e-12	80.38799999999991	-84.66000000000004	5.05043721578303e-13	2.071017320375504e-12	0	-114.0000000000003	-139.067795130823
19.39353084564209	80.46547969234258	-0.7	0.0500000000000003	64.96547969234202	-54.44529528192157	-1.039076492892845e-12	80.38799999999991	-84.66000000000004	5.05043721578303e-13	2.071017320375504e-12	0	-114.0000000000003	-139.067795130823
19.39751982688904	80.03024474440996	-0.7	0.0500000000000003	64.5302447444094	-53.57597886138876	-1.039076492892845e-12	80.38799999999991	-84.66000000000004	5.05043721578303e-13	2.071017320375504e-12	0	-114.0000000000003	-139.067795130823
19.40253496170044	80.03561200473189	-0.7	0.0500000000000003	64.53561200473132	-53.57094266039056	-1.039076492892845e-12	80.38799999999991	-84.66000000000004	5.05043721578303e-13	2.071017320375504e-12	0	-114.0000000000003	-139.067795130823
19.40656208992004	79.56879414939525	-0.7	0.0500000000000003	64.06879414939469	-52.63441536289586	-1.039076492892845e-12	80.38799999999991	-84.66000000000004	5.05043721578303e-13	2.071017320375504e-12	0	-114.0000000000003	-139.067795130823
19.41352391242981	79.56958101166651	-0.7	0.0500000000000003	64.06958101166595	-53.61082151742104	-1.039076492892845e-12	80.38799999999991	-84.66000000000004	5.05043721578303e-13	2.071017320375504e-12	0	-114.0000000000003	-139.067795130823
19.41753077507019	79.09868994975665	-0.7	0.0500000000000003	63.59868994975609	-52.67071823597952	-1.039076492892845e-12	80.38799999999991	-84.66000000000004	5.05043721578303e-13	2.071017320375504e-12	0	-114.0000000000003	-139.067795130823
